HIERARCHY
ROOT Hips
{
  OFFSET -102.467 93.6631 130.069
  CHANNELS 6 Xposition Yposition Zposition Zrotation Xrotation Yrotation
  JOINT LeftUpLeg
  {
    OFFSET 8.64259 1.95398 -2.38835
    CHANNELS 3 Zrotation Xrotation Yrotation
    JOINT LeftLeg
    {
      OFFSET 43.7702 0 0
      CHANNELS 3 Zrotation Xrotation Yrotation
      JOINT LeftFoot
      {
        OFFSET 40.6238 0 0
        CHANNELS 3 Zrotation Xrotation Yrotation
        JOINT LeftToeBase
        {
          OFFSET 12.7242 0 0
          CHANNELS 3 Zrotation Xrotation Yrotation
          End Site
          {
            OFFSET 0 0 0
          }
        }
      }
    }
  }
  JOINT RightUpLeg
  {
    OFFSET -8.2249 1.95398 -2.59336
    CHANNELS 3 Zrotation Xrotation Yrotation
    JOINT RightLeg
    {
      OFFSET 43.5653 0 0
      CHANNELS 3 Zrotation Xrotation Yrotation
      JOINT RightFoot
      {
        OFFSET 40.6238 0 0
        CHANNELS 3 Zrotation Xrotation Yrotation
        JOINT RightToeBase
        {
          OFFSET 12.7242 0 0
          CHANNELS 3 Zrotation Xrotation Yrotation
          End Site
          {
            OFFSET 0 0 0
          }
        }
      }
    }
  }
  JOINT Spine
  {
    OFFSET 0.165834 0.87714 6.61349
    CHANNELS 3 Zrotation Xrotation Yrotation
    JOINT Spine1
    {
      OFFSET 7.38963 1.71661e-005 0
      CHANNELS 3 Zrotation Xrotation Yrotation
      JOINT Spine2
      {
        OFFSET 11.9445 1.14441e-005 0
        CHANNELS 3 Zrotation Xrotation Yrotation
        JOINT Spine3
        {
          OFFSET 14.7254 4.19617e-005 0
          CHANNELS 3 Zrotation Xrotation Yrotation
          JOINT Spine4
          {
            OFFSET 10.9679 0 0
            CHANNELS 3 Zrotation Xrotation Yrotation
            JOINT RightShoulder
            {
              OFFSET 2.46616 -1.6653 3.69651
              CHANNELS 3 Zrotation Xrotation Yrotation
              JOINT RightArm
              {
                OFFSET 13.0012 0 0
                CHANNELS 3 Zrotation Xrotation Yrotation
                JOINT RightForeArm
                {
                  OFFSET 28.7848 1.52588e-005 0
                  CHANNELS 3 Zrotation Xrotation Yrotation
                  JOINT RightHand
                  {
                    OFFSET 26.5688 1.52588e-005 0
                    CHANNELS 3 Zrotation Xrotation Yrotation
                    End Site
                    {
                      OFFSET 0 0 0
                    }
                  }
                }
              }
            }
            JOINT LeftShoulder
            {
              OFFSET 2.38034 -1.29275 -3.7523
              CHANNELS 3 Zrotation Xrotation Yrotation
              JOINT LeftArm
              {
                OFFSET 16.3182 6.10351e-005 0
                CHANNELS 3 Zrotation Xrotation Yrotation
                JOINT LeftForeArm
                {
                  OFFSET 27.0901 0 0
                  CHANNELS 3 Zrotation Xrotation Yrotation
                  JOINT LeftHand
                  {
                    OFFSET 24.5451 1.52588e-005 0
                    CHANNELS 3 Zrotation Xrotation Yrotation
                    End Site
                    {
                      OFFSET 0 0 0
                    }
                  }
                }
              }
            }
            JOINT Neck
            {
              OFFSET 5.0226 -0.0266342 0
              CHANNELS 3 Zrotation Xrotation Yrotation
              JOINT Head
              {
                OFFSET 6.69363 2.86102e-005 0
                CHANNELS 3 Zrotation Xrotation Yrotation
                End Site
                {
                  OFFSET 0 0 0
                }
              }
            }
          }
        }
      }
    }
  }
}
MOTION
Frames:	10
Frame Time:	0.0416667
-2.01539 14.0173 -53.0954 168.277 -4.38425 169.632 -154.507 74.2599 50.0545 -132.869 8.67639 3.50458 42.0127 -8.97438 -5.32748 16.6052 1.23107 4.05373 169.27 66.4715 58.6487 -101.517 -32.6844 -0.850427 45.1345 13.1435 10.6345 16.9333 2.66851 -1.82781 -0.871811 14.6313 -90.9342 -2.41337 -2.0584 -1.97398 -14.084 -2.14327 -1.88149 -36.6139 -1.37018 -2.50115 -16.6013 -1.37019 -2.50116 94.5413 -18.0886 -101.413 90.2932 -27.3755 33.0888 -8.65508 -15.6651 -43.8189 -76.4189 -9.12877 6.59792 -89.0465 -41.2506 78.0009 -12.5024 35.8012 -4.40355 6.42188 9.2355 -45.0778 -4.04385 -0.0139189 -7.80852 -53.1299 4.62561 -17.0198 -2.76821 -1.19147 0.0612828 
-1.99369 13.8876 -53.1849 169.193 -4.86361 170.831 -151.529 73.7495 48.6303 -135.17 6.89998 3.61429 42.5817 -8.00659 -3.69409 15.4404 1.28725 4.77762 178.795 69.4548 49.6686 -110.323 -34.4239 -2.49123 44.0195 13.618 10.189 18.0988 2.35886 -2.17185 -0.803758 14.8682 -90.9792 -2.8867 -1.93356 -2.06224 -14.5577 -2.02244 -1.97518 -37.0852 -1.22462 -2.54779 -17.0726 -1.22461 -2.54779 94.1008 -16.468 -103.168 89.8342 -29.7621 28.6374 -1.57895 -14.7251 -36.7367 -80.8168 -8.56349 5.04022 -88.825 -37.6517 77.4891 -11.8538 39.1722 -9.18445 1.37118 8.56898 -40.6729 -3.81922 -0.034872 -8.77543 -54.045 4.62189 -16.1975 -1.72988 -1.06502 -0.0789227 
-1.76745 14.0144 -53.1151 169.452 -6.14579 172.755 -155.595 73.5199 53.0015 -135.964 4.8706 3.51503 45.8849 -5.27307 -0.55505 19.6742 0.984789 4.50212 -174.068 70.1068 43.4032 -115.98 -36.3359 -3.19314 43.6709 13.7021 9.73975 16.3465 2.72942 -3.73046 -0.714642 14.9523 -90.9979 -3.05338 -1.76119 -2.08695 -14.7247 -1.85131 -2.00745 -37.2505 -1.05278 -2.51955 -17.2379 -1.05278 -2.51956 93.3714 -17.4493 -104.593 86.8813 -30.8517 24.286 3.53692 -15.0021 -29.2544 -83.1971 -8.56018 4.57898 -88.7459 -34.5556 76.8098 -15.865 38.0052 -8.83667 1.76175 11.9426 -37.8228 -7.76665 0.171542 -9.86419 -54.1551 4.58248 -15.9155 -1.54012 -1.01377 0.0316158 
-1.85172 14.3663 -52.7982 169.949 -8.25889 174.763 -165.219 74.0885 63.3603 -135.553 4.07217 3.27019 46.2599 -3.95335 2.99378 24.7256 0.654416 6.18233 -170.216 71.0071 42.2292 -120.12 -36.8363 -3.54834 45.3015 12.4888 8.05679 14.915 3.14793 -2.67924 -0.543584 15.0502 -91.0533 -3.24654 -1.43808 -2.16869 -14.9184 -1.53211 -2.10333 -37.4411 -0.720044 -2.50044 -17.4285 -0.720045 -2.50044 92.8667 -20.3575 -104.583 82.2626 -32.0196 21.259 7.05394 -15.624 -23.3382 -87.2447 -8.69879 4.0502 -88.6735 -33.2818 76.5876 -18.2888 39.3964 -8.13265 0.763752 11.6749 -36.7886 -3.68689 -0.0417675 -8.89566 -51.5459 3.97682 -14.5981 -1.84121 -0.821556 -0.913083 
-1.79262 15.191 -51.9878 168.501 -12.1401 176.353 -173.386 77.2643 72.0329 -136 7.11859 2.8833 44.1769 -4.91119 4.98187 28.6574 0.477946 7.27271 -168.615 74.3309 41.7746 -125.251 -34.4478 -3.80005 47.0574 10.9931 6.15133 13.286 3.62254 0.394982 -0.554691 15.1027 -91.3138 -3.35801 -1.54758 -2.68389 -15.0307 -1.66415 -2.61325 -37.5457 -0.669828 -3.0246 -17.533 -0.669826 -3.02461 92.3096 -25.3153 -103.929 74.7732 -33.3872 18.484 9.55949 -16.1403 -18.7321 -82.6596 -7.88266 3.94887 -89.1789 -33.4258 75.6991 -19.1829 40.7721 -7.75065 -0.730319 11.0866 -36.3133 -2.34557 -0.0928315 -8.36285 -49.3498 2.88701 -12.4497 -0.154792 -0.947837 -0.557008 
-1.50711 16.4605 -49.8019 167.574 -16.0499 174.446 -156.135 78.9652 55.6457 -138.164 5.60248 3.15726 46.0012 -3.18945 6.09847 30.4953 0.425529 7.78106 -145.556 73.9209 19.9416 -134.943 -37.9255 -3.53508 51.3798 7.82706 3.25486 17.0186 2.57759 -3.15451 -0.82236 14.9729 -91.1709 -3.10245 -2.03371 -2.44697 -14.7739 -2.1394 -2.35514 -37.2961 -1.20465 -2.94469 -17.2834 -1.20464 -2.9447 92.4659 -30.5242 -101.864 67.4008 -33.5063 15.5505 12.2428 -16.2307 -13.4793 -85.5566 -6.58825 2.07661 -89.9856 -34.2532 74.4777 -20.991 41.5896 -6.24065 1.34573 15.8659 -35.917 1.73538 -0.190204 -7.14847 -51.3766 2.52003 -11.3349 1.41846 -1.23036 -0.591755 
-0.495448 17.7563 -46.6906 166.809 -20.709 170.825 -123.156 75.5215 22.6539 -141.041 0.716364 3.97696 49.0389 0.179067 9.55734 34.2429 0.272621 7.92949 -123.972 67.9154 -1.20415 -141.824 -41.2775 -2.55917 52.2218 6.08771 -0.550216 21.501 1.36213 -3.68455 -1.29156 14.4778 -90.886 -2.11498 -2.87959 -1.93636 -13.784 -2.96201 -1.80771 -36.3236 -2.16472 -2.71217 -16.3109 -2.16472 -2.71218 93.2773 -33.7228 -99.374 62.3918 -32.0708 14.5539 13.3668 -22.0405 -9.11496 -86.2546 -8.18136 3.71798 -89.6497 -36.5677 75.7569 -22.5633 40.6237 -5.18008 0.970923 20.0861 -33.5017 3.05032 -0.159444 -5.81791 -54.9692 2.29852 -9.33099 3.1827 -1.12663 -0.369297 
0.988871 18.2376 -43.3745 164.254 -24.4321 166.682 -105.762 68.0926 2.64988 -143.953 -5.01934 4.95649 51.5344 3.33505 11.8323 36.9637 0.237123 8.67758 -117.644 61.1048 -9.69765 -143.43 -43.143 -1.83029 52.4674 5.38951 -2.08868 25.1017 0.776649 -0.790757 -1.92326 14.0867 -90.771 -1.34355 -4.10483 -1.76709 -13.009 -4.1786 -1.58449 -35.5725 -3.38404 -2.91977 -15.5598 -3.38405 -2.91977 94.3436 -36.0853 -96.8228 57.9053 -31.3142 15.0571 14.4737 -25.2739 -6.51276 -90.328 -7.96517 2.8773 -89.5166 -36.9265 76.088 -28.1439 38.8814 -2.21951 1.99104 25.2148 -31.7902 5.34212 -0.0839387 -4.34346 -55.8016 1.44303 -6.86036 4.06211 -1.07432 0.455686 
2.16886 18.6686 -40.8292 159.605 -27.3166 162.167 -100.795 61.3934 -6.06385 -145.801 -7.61572 5.58355 52.9058 5.38429 14.4401 39.3349 0.274103 9.43583 -117.438 55.5961 -13.3954 -145.015 -47.5195 -1.27567 53.4713 4.65994 -5.40894 31.5677 -1.00723 -1.71913 -2.47876 14.123 -90.8326 -1.43643 -5.2315 -1.96838 -13.098 -5.31303 -1.73569 -35.6851 -4.39804 -3.45153 -15.6724 -4.39804 -3.45154 94.6298 -44.1051 -94.8306 46.7627 -32.1591 12.4273 16.6964 -26.2839 -3.63351 -87.4838 -8.83143 4.19224 -89.4355 -36.1655 76.0257 -33.6683 34.9299 -0.67479 3.58646 30.1427 -29.9016 6.43014 -0.102708 -4.41773 -54.5677 0.310817 -4.70709 6.73701 -1.17889 2.0127 
2.89865 19.6943 -39.4862 155.349 -30.8451 156.601 -99.0431 56.5614 -10.1967 -145.712 -9.17293 6.1343 53.8244 6.43955 15.6973 44.0343 0.170308 9.73121 -116.495 52.0568 -17.2314 -146.463 -49.9912 -0.962506 57.0514 1.55281 -7.88129 35.8343 -1.97988 -1.26382 -2.68815 14.4195 -91.0083 -2.05003 -5.70175 -2.38482 -13.7102 -5.80115 -2.13093 -36.3019 -4.72153 -3.9902 -16.2893 -4.72153 -3.99021 93.6065 -53.3187 -94.9659 34.0859 -32.7029 7.17973 19.5981 -25.6706 -0.693071 -79.9235 -11.7544 9.03774 -89.3688 -39.4063 77.003 -32.5367 29.4956 -3.59584 8.44788 40.0914 -30.0475 10.1902 0.290742 -0.906917 -50.241 -2.75919 1.23326 10.2092 -2.62543 -1.00101 
